<?xml version="1.0" encoding="UTF-8"?>
<svg version="1.1" xmlns="http://www.w3.org/2000/svg" width="474" height="474">
<path d="M0 0 C156.42 0 312.84 0 474 0 C474 156.42 474 312.84 474 474 C317.58 474 161.16 474 0 474 C0 317.58 0 161.16 0 0 Z " fill="#FEFEFE" transform="translate(0,0)"/>
<path d="M0 0 C1.67578125 1.3203125 1.67578125 1.3203125 3.98828125 3.5078125 C3.98828125 4.1678125 3.98828125 4.8278125 3.98828125 5.5078125 C4.97828125 5.8378125 5.96828125 6.1678125 6.98828125 6.5078125 C8.4422028 8.57375441 9.69906784 10.56227429 10.92578125 12.7578125 C11.27769531 13.38751953 11.62960937 14.01722656 11.9921875 14.66601562 C17.9101947 25.61432894 21.16473369 37.44376549 18.46875 49.91015625 C18.31019531 50.43738281 18.15164063 50.96460938 17.98828125 51.5078125 C18.91640625 51.2603125 18.91640625 51.2603125 19.86328125 51.0078125 C36.01298736 48.42385952 50.44500893 53.94046382 63.41015625 63.24609375 C72.26622368 70.37675494 79.50895932 81.37300062 81.98828125 92.5078125 C82.26091797 93.62736328 82.26091797 93.62736328 82.5390625 94.76953125 C84.00399189 103.69923124 83.80410458 113.89663187 80.98828125 122.5078125 C80.7665625 123.26835937 80.54484375 124.02890625 80.31640625 124.8125 C75.88557075 137.89600482 64.84936315 148.07866639 55.1887207 157.53686523 C54.04206843 158.67117083 52.89615035 159.80621901 51.75090027 160.94194031 C49.31063663 163.35940719 46.86594716 165.77226959 44.41768837 168.18163872 C40.54661552 171.99246205 36.68965548 175.81736437 32.83500671 179.64479065 C21.88176746 190.5167326 10.91207232 201.37193133 -0.07592773 212.20874023 C-6.16504591 218.21431579 -12.24160599 224.23231018 -18.3046878 230.26417309 C-22.1345706 234.07287953 -25.97950506 237.86548649 -29.83629167 241.64693725 C-32.22373902 243.99499081 -34.59646085 246.3574944 -36.96519279 248.72441292 C-38.06731678 249.81980878 -39.17548008 250.90916588 -40.28995895 251.99198914 C-41.80839301 253.46898103 -43.30383545 254.96596001 -44.79545593 256.46995544 C-45.63881343 257.30296393 -46.48217093 258.13597242 -47.35108471 258.99422359 C-49.31340277 261.44144457 -49.31340277 261.44144457 -48.92477131 264.63865757 C-47.69253544 268.51080664 -45.35903586 270.76832534 -42.48046875 273.4921875 C-41.92935425 274.03385559 -41.37823975 274.57552368 -40.8104248 275.13360596 C-39.05565238 276.85390897 -37.28458897 278.55618442 -35.51171875 280.2578125 C-33.74246698 281.97710441 -31.97673786 283.6999058 -30.2130127 285.42486572 C-29.11631438 286.49515061 -28.01575357 287.56149473 -26.91101074 288.62347412 C-22.13056611 293.24803048 -22.13056611 293.24803048 -21.69921875 297.8203125 C-22.06047817 302.08317361 -23.03163929 303.52773304 -26.01171875 306.5078125 C-29.27219504 308.13805064 -31.3897291 307.975166 -35.01171875 307.5078125 C-36.76220703 306.29467773 -36.76220703 306.29467773 -38.58203125 304.62890625 C-39.2786084 303.99259277 -39.97518555 303.3562793 -40.69287109 302.70068359 C-45.09637419 298.53641061 -49.45341855 294.3331665 -53.76171875 290.0703125 C-54.69371094 289.16732422 -55.62570313 288.26433594 -56.5859375 287.33398438 C-63.20089049 280.78072033 -68.99126753 274.16106408 -69.32421875 264.3828125 C-69.09291787 250.11154802 -56.21194227 240.57106282 -46.84741211 231.32519531 C-45.73270907 230.22061668 -44.61828092 229.11576057 -43.50410461 228.01065063 C-41.11815552 225.64469465 -38.730862 223.28010656 -36.34266472 220.91641998 C-32.5591307 217.17052561 -28.78229207 213.41792923 -25.00697327 209.66375732 C-24.36743947 209.02786092 -23.72790568 208.39196452 -23.06899208 207.73679852 C-21.7620277 206.43723883 -20.45507937 205.13766299 -19.14814675 203.83807135 C-10.36974524 195.10948144 -1.58713523 186.38524763 7.21411133 177.6796875 C13.16691404 171.7915026 19.108853 165.89258812 25.03868574 159.98126864 C28.16972562 156.86085816 31.30591357 153.74606208 34.45552254 150.64438629 C37.41944651 147.72541338 40.36875414 144.79241216 43.30792427 141.84852219 C44.38216273 140.77750263 45.46147462 139.71154103 46.5464592 138.65140915 C56.277869 129.13277236 62.94854882 119.39093768 63.42578125 105.5078125 C63.50421348 97.66458919 61.24766479 92.01984924 56.98828125 85.5078125 C56.54355469 84.81945312 56.09882813 84.13109375 55.640625 83.421875 C51.12535364 77.39273716 44.02292598 73.85269408 36.98828125 71.5078125 C34.0151072 71.18018474 31.03975395 71.13787307 28.05078125 71.0703125 C26.86258789 71.00166992 26.86258789 71.00166992 25.65039062 70.93164062 C15.89606542 70.75201734 7.78362385 75.5000531 0.76902771 82.01226807 C-1.00467499 83.77183471 -2.76234372 85.54766902 -4.50610352 87.33691406 C-5.48691288 88.32106273 -6.46906631 89.30387341 -7.45243835 90.28546143 C-10.08933757 92.92488395 -12.70750282 95.58218264 -15.32256055 98.24322224 C-18.07254729 101.03478318 -20.84026756 103.80865132 -23.60618591 106.58441162 C-28.83094324 111.83287297 -34.04064081 117.09600838 -39.24458116 122.36510253 C-46.89471898 130.10965016 -54.56760845 137.83160708 -62.24039364 145.55370712 C-63.37315608 146.6938167 -64.50591048 147.83393428 -65.63865662 148.97406006 C-66.46805147 149.80877952 -66.46805147 149.80877952 -67.31420177 150.66036201 C-70.59747799 153.96572425 -73.87641061 157.27532116 -77.15149605 160.588799 C-79.18358776 162.64425889 -81.2175436 164.69786797 -83.25177193 166.75121307 C-84.64485048 168.15886729 -86.03527669 169.56914483 -87.42562866 170.97949219 C-88.66792488 172.23273285 -88.66792488 172.23273285 -89.93531799 173.5112915 C-91.01394277 174.60298834 -91.01394277 174.60298834 -92.11435795 175.71673965 C-94.88246241 178.3297781 -96.56807921 179.45030367 -100.38671875 179.9453125 C-104.91602112 179.39867256 -106.19179595 177.99124655 -109.01171875 174.5078125 C-110.52061344 171.49002313 -110.51198151 169.88458613 -110.01171875 166.5078125 C-105.40879705 160.06832937 -99.2070473 154.59364428 -93.59155273 149.0534668 C-92.18244143 147.65645982 -90.77333407 146.25944887 -89.36437523 144.86228812 C-87.86424554 143.37550685 -86.3629268 141.88993457 -84.86138725 140.40457726 C-81.71675045 137.29284534 -78.57830892 134.17491442 -75.44117737 131.05561829 C-74.36218552 129.98288627 -73.28319363 128.9101543 -72.2042017 127.83742237 C-71.66424789 127.30058468 -71.12429407 126.763747 -70.56797802 126.2106415 C-63.27587622 118.96137168 -55.9792667 111.71673166 -48.66821289 104.48657227 C-43.71929652 99.59231803 -38.77948246 94.6890708 -33.84968811 89.775554 C-31.24834562 87.18353234 -28.64270369 84.5962059 -26.02575493 82.0199337 C-23.1042321 79.14370207 -20.20284247 76.2479205 -17.30249023 73.3503418 C-16.44673904 72.51413803 -15.59098785 71.67793427 -14.70930481 70.81639099 C-6.32683834 62.37686781 -1.00552618 53.86691466 -0.76171875 41.7578125 C-0.9498373 31.27020361 -4.87574305 23.17327038 -12.01171875 15.5078125 C-21.42791054 8.23891868 -31.25414345 6.40658406 -42.89794922 7.21337891 C-53.54063808 8.69583245 -61.56910921 16.57844691 -68.01171875 24.5078125 C-70.72950457 27.36863968 -73.55086683 29.98083179 -76.57421875 32.5078125 C-78.64917996 34.25772614 -80.24753584 35.80448562 -81.94921875 37.9453125 C-83.78661014 40.22813211 -85.53737876 41.87900105 -87.76171875 43.7578125 C-91.60861678 47.03877954 -94.89311603 50.63104848 -98.20703125 54.44140625 C-101.41443833 58.11395678 -104.84143962 61.38398251 -108.57421875 64.5078125 C-111.45775826 66.9376917 -113.66290014 69.55284716 -116.01171875 72.5078125 C-117.99432301 74.19513527 -119.99495295 75.86147307 -122.01171875 77.5078125 C-123.70105797 79.1514939 -125.36431799 80.8221001 -127.01171875 82.5078125 C-127.7284375 83.21421875 -128.44515625 83.920625 -129.18359375 84.6484375 C-133.04129436 88.45571065 -136.68044704 92.22474887 -140.01171875 96.5078125 C-142.72662773 99.36947332 -145.5513243 101.98227462 -148.57421875 104.5078125 C-150.67269417 106.27684984 -152.28294194 107.84684149 -154.01171875 110.0078125 C-155.7179007 112.14053994 -157.23954546 113.60542605 -159.32421875 115.3203125 C-162.71688281 118.13303399 -165.47204146 121.27043524 -168.31640625 124.625 C-169.857601 126.33664947 -171.40373481 127.76072985 -173.19921875 129.1953125 C-176.03496103 131.36234365 -176.03496103 131.36234365 -177.94921875 133.9453125 C-180.177301 136.7135359 -182.5955467 138.82633442 -185.328125 141.078125 C-187.04174859 142.4899544 -187.04174859 142.4899544 -188.6015625 144.125 C-190.87094717 146.35037998 -192.083922 146.51462413 -195.32421875 146.8203125 C-199.70605399 146.44897053 -201.17128441 145.84949996 -204.01171875 142.5078125 C-205.59092852 137.77018318 -205.59092852 137.77018318 -205.01171875 134.5078125 C-203.89361095 132.78711033 -203.89361095 132.78711033 -202.27397156 131.03211975 C-201.63093771 130.33380098 -200.98790386 129.63548222 -200.32538414 128.91600227 C-195.45654733 123.84825001 -190.52596424 118.84683442 -185.56567383 113.86889648 C-184.31301919 112.60832573 -183.06054196 111.34757867 -181.80822754 110.08666992 C-177.71962467 105.97203648 -173.62573973 101.86268047 -169.53125 97.75390625 C-168.1152815 96.33257156 -166.69931868 94.91123123 -165.28336143 93.48988533 C-159.39110709 87.57603631 -153.49742369 81.66361762 -147.60001087 75.75491238 C-139.17900683 67.31766984 -130.76660637 58.87205407 -122.366 50.41450065 C-116.4399199 44.44963393 -110.50420478 38.49446366 -104.56133956 32.5463205 C-101.02024186 29.0015834 -97.48338428 25.45285298 -93.95679665 21.89367485 C-90.63773795 18.54437929 -87.30680788 15.20734935 -83.96674347 11.87900543 C-82.74990442 10.66238576 -81.53726102 9.44155126 -80.32940483 8.21601295 C-57.14899166 -15.28488778 -27.52162995 -20.41410222 0 0 Z " fill="#050505" transform="translate(297.01171875,99.4921875)"/>
<path d="M0 0 C3.80703755 2.02501998 4.7651981 3.25415866 6.0625 7.375 C5.92325885 15.45098687 -1.68278012 20.93047173 -7.07958984 26.24316406 C-8.48807055 27.64223001 -9.89654907 29.04129817 -11.30494523 30.44044924 C-12.81251015 31.93627752 -14.32249907 33.42962034 -15.83314133 34.92234039 C-18.99197568 38.04440375 -22.14194515 41.17531045 -25.29043579 44.30780029 C-34.24244638 53.21165187 -43.20615065 62.10367512 -52.17871094 70.98681641 C-57.13992889 75.89874721 -62.09378121 80.81799073 -67.04001963 85.74500632 C-70.16124493 88.85323234 -73.29121764 91.95227105 -76.4282186 95.04457045 C-78.84750037 97.43463881 -81.25346866 99.8379778 -83.66162109 102.23925781 C-84.95231758 103.50366951 -84.95231758 103.50366951 -86.26908875 104.79362488 C-95.23661401 113.79032198 -100.86774025 122.62841923 -101.3125 135.4375 C-101.09352282 145.34621761 -97.07436965 153.26492175 -90.6875 160.6875 C-82.65051567 167.60304465 -75.10683176 170.50693764 -64.44921875 170.3125 C-49.9136932 168.99557809 -41.17321164 160.50076941 -31.42211914 150.50634766 C-30.00529942 149.06778636 -28.58847275 147.62923188 -27.17138374 146.19093585 C-25.66262395 144.65796337 -24.15630215 143.12262802 -22.65043831 141.58681107 C-19.50134485 138.37684609 -16.34052367 135.17860215 -13.17710876 131.98275757 C-12.09068056 130.88492724 -11.0042596 129.78708974 -9.91784573 128.68924522 C-9.37419554 128.13989335 -8.83054535 127.59054147 -8.27042091 127.02454257 C-0.91740175 119.59266332 6.42598641 112.1515383 13.74487305 104.68603516 C18.69691733 99.63497571 23.66484087 94.60013455 28.65140253 89.58314168 C31.28472378 86.93240111 33.9091497 84.27402588 36.51414299 81.59541702 C39.41622445 78.61149918 42.35245972 75.66358551 45.29272461 72.71728516 C46.14546967 71.82904053 46.99821472 70.9407959 47.87680054 70.02563477 C54.49727043 63.48279956 54.49727043 63.48279956 59.95045471 63.37313843 C63.3846064 63.67623182 65.64038162 64.34542932 68 67 C69.20535162 70.61605486 69.34327227 73.19894554 69 77 C67.29467773 79.59928894 67.29467773 79.59928894 64.74609375 82.17651367 C64.26337509 82.67406001 63.78065643 83.17160635 63.28330994 83.68422985 C62.16964823 84.82591464 61.04726266 85.95912879 59.91815186 87.08553696 C57.82084339 89.17881208 55.74790855 91.2945628 53.67626953 93.41323853 C48.49841576 98.69411229 43.28254003 103.93664898 38.0625 109.17578125 C37.10585759 110.13648401 36.14924368 111.09721515 35.19265747 112.05797386 C30.70213873 116.56743562 26.20928472 121.07455438 21.71348858 125.57875472 C16.56326225 130.73877629 11.42145749 135.9070061 6.28651142 141.08223277 C2.28560183 145.11342597 -1.72307157 149.13679442 -5.73750019 153.15452451 C-8.12196664 155.54132302 -10.50201628 157.93212549 -12.87594604 160.32943153 C-15.52378075 163.00173774 -18.18410251 165.66100018 -20.84765625 168.31762695 C-21.61369171 169.09647247 -22.37972717 169.87531799 -23.16897583 170.67776489 C-34.76840817 182.16830499 -49.58604059 190.52486421 -66.1875 190.625 C-80.79620603 190.30336608 -94.34041628 185.03339752 -104.8125 174.75 C-116.47722198 162.45385432 -121.40127645 148.48104125 -121.20703125 131.65234375 C-120.29152028 115.50134829 -112.16093594 103.19682319 -101 92 C-100.12214844 91.09894531 -99.24429688 90.19789063 -98.33984375 89.26953125 C-96.25098166 87.24343964 -94.66539655 86.0859023 -92 85 C-92 84.34 -92 83.68 -92 83 C-90.3777546 81.29006566 -88.70586575 79.62652316 -87 78 C-86.443125 77.401875 -85.88625 76.80375 -85.3125 76.1875 C-84 75 -84 75 -82 75 C-81.773125 74.443125 -81.54625 73.88625 -81.3125 73.3125 C-79.62449964 70.33840412 -77.53323483 68.27991135 -75 66 C-74.34 66 -73.68 66 -73 66 C-72.773125 65.4225 -72.54625 64.845 -72.3125 64.25 C-70.65273655 61.40469122 -68.57933333 60.06346666 -66 58 C-64.8757629 56.74688694 -63.77328156 55.47407678 -62.6875 54.1875 C-59.66865834 50.64249857 -56.41342482 47.6719279 -52.859375 44.67578125 C-51.08155132 43.07349898 -49.61345388 41.43182296 -48.125 39.5625 C-47.073125 38.2940625 -47.073125 38.2940625 -46 37 C-45.34 37 -44.68 37 -44 37 C-44 36.34 -44 35.68 -44 35 C-43.34 35 -42.68 35 -42 35 C-41.690625 34.1646875 -41.690625 34.1646875 -41.375 33.3125 C-39.85230121 30.7515975 -38.01827359 29.30845192 -35.703125 27.4765625 C-33.12215585 25.23893328 -31.00606862 22.64494467 -28.79296875 20.05078125 C-26.01675511 16.8753735 -23.0097324 13.95157332 -20 11 C-18.7625 9.7315625 -18.7625 9.7315625 -17.5 8.4375 C-16.2625 7.2309375 -16.2625 7.2309375 -15 6 C-14.47792969 5.45859375 -13.95585937 4.9171875 -13.41796875 4.359375 C-8.92812753 0.02156001 -6.2346111 -1.00558244 0 0 Z " fill="#050505" transform="translate(265,132)"/>
<path d="M0 0 C0.58815491 0.22415588 1.17630981 0.44831177 1.7822876 0.67926025 C0.7922876 1.33926025 -0.1977124 1.99926025 -1.2177124 2.67926025 C-1.8777124 3.66926025 -2.5377124 4.65926025 -3.2177124 5.67926025 C-3.8570874 5.94738525 -4.4964624 6.21551025 -5.1552124 6.49176025 C-7.53578435 7.60662728 -7.53578435 7.60662728 -8.7177124 10.74176025 C-9.2127124 11.71113525 -9.7077124 12.68051025 -10.2177124 13.67926025 C-11.54567531 14.0333837 -12.87987847 14.3644758 -14.2177124 14.67926025 C-15.48756825 16.11191813 -16.75139786 17.55326551 -17.92474365 19.065979 C-19.2177124 20.67926025 -19.2177124 20.67926025 -21.8427124 23.24176025 C-24.30068165 25.57223793 -24.30068165 25.57223793 -25.8427124 28.42926025 C-27.2177124 30.67926025 -27.2177124 30.67926025 -30.2177124 31.67926025 C-31.91093179 32.97870769 -33.58167045 34.3085224 -35.2177124 35.67926025 C-35.2177124 32.07522724 -34.69340745 31.77083352 -32.25189209 29.29351807 C-31.60411804 28.62983215 -30.95634399 27.96614624 -30.28894043 27.28234863 C-29.57965393 26.57286072 -28.87036743 25.8633728 -28.1395874 25.13238525 C-27.41660461 24.40178894 -26.69362183 23.67119263 -25.94873047 22.91845703 C-24.41581762 21.37472722 -22.87889327 19.83497215 -21.33831787 18.29888916 C-18.97717056 15.93871452 -16.6381295 13.55805544 -14.29974365 11.175354 C-12.81016097 9.68056509 -11.31931682 8.18703197 -9.8270874 6.69488525 C-9.12589783 5.97730042 -8.42470825 5.25971558 -7.70227051 4.52038574 C-7.04188782 3.86930847 -6.38150513 3.2182312 -5.70111084 2.54742432 C-4.83507233 1.67830414 -4.83507233 1.67830414 -3.95153809 0.79162598 C-2.2177124 -0.32073975 -2.2177124 -0.32073975 0 0 Z " fill="#0F0F0F" transform="translate(297.21771240234375,221.32073974609375)"/>
<path d="M0 0 C0.33 0.99 0.66 1.98 1 3 C0.319375 3.680625 -0.36125 4.36125 -1.0625 5.0625 C-1.51625 5.51753906 -1.97 5.97257813 -2.4375 6.44140625 C-3.53654851 7.53770714 -4.64124388 8.62836175 -5.75 9.71484375 C-8.42653929 12.35100421 -10.93026815 14.91089819 -13.25 17.875 C-15 20 -15 20 -18 21 C-18.33 21.66 -18.66 22.32 -19 23 C-19 20 -19 20 -17.36352539 18.03881836 C-16.24192017 16.95032593 -16.24192017 16.95032593 -15.09765625 15.83984375 C-14.29005859 15.04642578 -13.48246094 14.25300781 -12.65039062 13.43554688 C-11.79638672 12.61119141 -10.94238281 11.78683594 -10.0625 10.9375 C-8.38465097 9.30290106 -6.70876689 7.66628197 -5.03515625 6.02734375 C-3.91185913 4.94054321 -3.91185913 4.94054321 -2.76586914 3.83178711 C-0.93099363 2.11098342 -0.93099363 2.11098342 0 0 Z " fill="#1D1D1D" transform="translate(354,226)"/>
<path d="M0 0 C0.56203125 0.25265625 1.1240625 0.5053125 1.703125 0.765625 C0.713125 1.425625 -0.276875 2.085625 -1.296875 2.765625 C-2.286875 4.250625 -2.286875 4.250625 -3.296875 5.765625 C-4.63020833 6.43229167 -5.96354167 7.09895833 -7.296875 7.765625 C-8.66774415 9.06033475 -10.01028337 10.38713397 -11.296875 11.765625 C-11.296875 7.71760041 -9.84694658 6.85182654 -7.046875 4.015625 C-6.25796875 3.19578125 -5.4690625 2.3759375 -4.65625 1.53125 C-2.296875 -0.234375 -2.296875 -0.234375 0 0 Z " fill="#101010" transform="translate(249.296875,269.234375)"/>
<path d="M0 0 C0.56203125 0.25652344 1.1240625 0.51304687 1.703125 0.77734375 C0.713125 1.27234375 0.713125 1.27234375 -0.296875 1.77734375 C-1.286875 3.26234375 -1.286875 3.26234375 -2.296875 4.77734375 C-2.956875 4.44734375 -3.616875 4.11734375 -4.296875 3.77734375 C-4.296875 4.43734375 -4.296875 5.09734375 -4.296875 5.77734375 C-5.63020833 7.11067708 -6.96354167 8.44401042 -8.296875 9.77734375 C-9.286875 9.44734375 -10.276875 9.11734375 -11.296875 8.77734375 C-9.89609102 7.241869 -8.47566597 5.72429227 -7.046875 4.21484375 C-5.86351562 2.94447266 -5.86351562 2.94447266 -4.65625 1.6484375 C-2.296875 -0.22265625 -2.296875 -0.22265625 0 0 Z " fill="#0E0E0E" transform="translate(233.296875,285.22265625)"/>
<path d="M0 0 C0.66 0.33 1.32 0.66 2 1 C-1.10283385 4.95878802 -3.81056459 8.20704306 -8 11 C-8 8 -8 8 -6.25 5.95703125 C-5.5075 5.24933594 -4.765 4.54164063 -4 3.8125 C-2.88625 2.73935547 -2.88625 2.73935547 -1.75 1.64453125 C-1.1725 1.10183594 -0.595 0.55914062 0 0 Z " fill="#171717" transform="translate(320,196)"/>
<path d="M0 0 C0 3.63320695 -0.73946263 4.25506176 -3 7 C-3.721875 7.9075 -4.44375 8.815 -5.1875 9.75 C-6.0846875 10.86375 -6.0846875 10.86375 -7 12 C-7.74609375 10.265625 -7.74609375 10.265625 -8 8 C-6.34765625 5.859375 -6.34765625 5.859375 -4.0625 3.75 C-3.31097656 3.04359375 -2.55945313 2.3371875 -1.78515625 1.609375 C-1.19605469 1.07828125 -0.60695313 0.5471875 0 0 Z " fill="#121212" transform="translate(310,206)"/>
<path d="M0 0 C0.33 0.99 0.66 1.98 1 3 C-1.64 5.31 -4.28 7.62 -7 10 C-7.66 9.67 -8.32 9.34 -9 9 C-6.03 6.03 -3.06 3.06 0 0 Z " fill="#D6D6D6" transform="translate(207,208)"/>
<path d="M0 0 C-0.75 2.4375 -0.75 2.4375 -2 5 C-4.0625 5.6875 -4.0625 5.6875 -6 6 C-6.33 6.66 -6.66 7.32 -7 8 C-7 5 -7 5 -4.625 2.3125 C-2 0 -2 0 0 0 Z " fill="#161616" transform="translate(342,241)"/>
<path d="M0 0 C0.33 1.32 0.66 2.64 1 4 C0.34 4.66 -0.32 5.32 -1 6 C-1.66 6 -2.32 6 -3 6 C-3.33 6.99 -3.66 7.98 -4 9 C-4.66 8.01 -5.32 7.02 -6 6 C-4.02 4.02 -2.04 2.04 0 0 Z " fill="#0C0C0C" transform="translate(171,154)"/>
<path d="M0 0 C0.33 1.32 0.66 2.64 1 4 C0.34 4.66 -0.32 5.32 -1 6 C-1.66 6 -2.32 6 -3 6 C-3.33 6.99 -3.66 7.98 -4 9 C-4.66 8.01 -5.32 7.02 -6 6 C-4.02 4.02 -2.04 2.04 0 0 Z " fill="#0C0C0C" transform="translate(203,122)"/>
<path d="M0 0 C0.33 1.32 0.66 2.64 1 4 C0.34 4.66 -0.32 5.32 -1 6 C-1.66 6 -2.32 6 -3 6 C-3.33 6.99 -3.66 7.98 -4 9 C-4.66 8.01 -5.32 7.02 -6 6 C-4.02 4.02 -2.04 2.04 0 0 Z " fill="#0C0C0C" transform="translate(219,106)"/>
<path d="M0 0 C0.66 0.99 1.32 1.98 2 3 C0 5 0 5 -2 6 C-2.33 6.66 -2.66 7.32 -3 8 C-3.75 6.25 -3.75 6.25 -4 4 C-2.0625 1.75 -2.0625 1.75 0 0 Z " fill="#111111" transform="translate(258,258)"/>
<path d="M0 0 C0.33 0.66 0.66 1.32 1 2 C-0.98 4.97 -0.98 4.97 -3 8 C-3.99 7.34 -4.98 6.68 -6 6 C-4.02 4.02 -2.04 2.04 0 0 Z " fill="#E7E7E7" transform="translate(219,260)"/>
<path d="M0 0 C0.625 1.875 0.625 1.875 1 4 C0.34 4.66 -0.32 5.32 -1 6 C-1.66 6 -2.32 6 -3 6 C-3.66 6.66 -4.32 7.32 -5 8 C-5 5 -5 5 -2.5 2.3125 C-1.675 1.549375 -0.85 0.78625 0 0 Z " fill="#0C0C0C" transform="translate(107,218)"/>
<path d="M0 0 C0.33 1.32 0.66 2.64 1 4 C-3.625 7 -3.625 7 -7 7 C-4.69 4.69 -2.38 2.38 0 0 Z " fill="#D6D6D6" transform="translate(239,176)"/>
<path d="M0 0 C0.625 1.875 0.625 1.875 1 4 C0.34 4.66 -0.32 5.32 -1 6 C-1.66 6 -2.32 6 -3 6 C-3.66 6.66 -4.32 7.32 -5 8 C-5 5 -5 5 -2.5 2.3125 C-1.675 1.549375 -0.85 0.78625 0 0 Z " fill="#0C0C0C" transform="translate(187,138)"/>
<path d="M0 0 C1.875 0.25 1.875 0.25 4 1 C5.25 3.0625 5.25 3.0625 6 5 C4.02 4.34 2.04 3.68 0 3 C0 2.01 0 1.02 0 0 Z " fill="#DDDDDD" transform="translate(181,296)"/>
<path d="M0 0 C0.625 1.875 0.625 1.875 1 4 C0.34 4.66 -0.32 5.32 -1 6 C-1.66 6 -2.32 6 -3 6 C-3.66 6.66 -4.32 7.32 -5 8 C-4.45773019 4.20411134 -2.79872437 2.52788007 0 0 Z " fill="#0C0C0C" transform="translate(139,186)"/>
</svg>
